<svg xmlns="http://www.w3.org/2000/svg" viewBox="0 0 680 680"><linearGradient id="a" x2="0%" y2="100%"><stop stop-color="transparent" offset="0"/><stop stop-color="#C1AB32" offset="1"/><animate fill="freeze" attributeName="y2" dur="3s" values="1000%; 0%"/></linearGradient><path d="m680 0h-680v680h680v-680z" fill="#14171A"></path><rect x="377" y="412" width="12" height="12" stroke="transparent" stroke-width="3px" fill ="transparent"><animate fill="freeze" attributeName="fill" begin="3s" dur="1s" from="transparent" to="white" /></rect><path transform="matrix(1 0 0 1 0 0)" d="m560.96 381h72.64v18.999h-72.64v-18.999zm0-50.789h72.64v18.81h-72.64v-18.81zm0-51.166h72.64v18.999h-72.64v-18.999z" stroke-width="3px" stroke="transparent" fill ="transparent"><animate fill="freeze" attributeName="stroke" begin="3s" dur="1s" from="transparent" to="white"/></path><path fill="url(#a)" transform="matrix(2 0 0 1.77 -369 -85)" d="m228.86 232.15h39.3v-25.65h-39.3zm-15.15 42.15v-15.15h15.15v13.65h39.3v-25.8h-40.8v-13.5h-13.65v-28.5h13.65v-13.65h42.3v13.65h13.8v69.3h-13.8v13.5h-42.3v-13.5z"><animate attributeName="fill" fill="freeze" begin="3s" dur="0.1s" to="#C1AB32"/></path><path fill="url(#a)" transform="matrix(2 0 0 1.77 -200 -85)" d="m228.86 232.15h39.3v-25.65h-39.3zm-15.15 42.15v-15.15h15.15v13.65h39.3v-25.8h-40.8v-13.5h-13.65v-28.5h13.65v-13.65h42.3v13.65h13.8v69.3h-13.8v13.5h-42.3v-13.5z"><animate attributeName="fill" fill="freeze" begin="3s" dur="0.1s" to="#C1AB32"/></path><path fill="url(#a)" transform="matrix(2 0 0 1.77 -29 -85)" d="m228.86 272.8h39.3v-25.8h-39.3zm0-40.65h39.3v-25.65h-39.3zm-15.15 42.15v-28.8h13.65v-12h-13.65v-28.5h13.65v-13.65h42.3v13.65h13.8v28.5h-13.8v12h13.8v28.8h-13.8v13.5h-42.3v-13.5z"><animate attributeName="fill" fill="freeze" begin="3s" dur="0.1s" to="#C1AB32"/></path><path d="m575 215c0-3.247-4.1-5.146-5.341-8.146s0.32-7.241-1.976-9.537-6.537-0.735-9.537-1.976-4.899-5.341-8.146-5.341c-3.24 0-5.128 4.102-8.122 5.341-3.007 1.244-7.26-0.325-9.561 1.976-2.294 2.295-0.71 6.539-1.951 9.537-1.243 3.004-5.366 4.894-5.366 8.146s4.123 5.142 5.366 8.146c1.241 2.998-0.341 7.24 1.951 9.537 2.293 2.298 6.537 0.735 9.537 1.976s4.899 5.341 8.146 5.341 5.146-4.1 8.146-5.341 7.241 0.32 9.537-1.976 0.735-6.537 1.976-9.537 5.341-4.899 5.341-8.146z" fill="none" stroke-width="3px"><animate fill="freeze" attributeName="fill" begin="5s" dur="1s" from="transparent" to="#C1AB32"/><animate fill="freeze" attributeName="stroke" begin="4.5s" dur="0.2s" from="transparent" to="white" repeatCount="5"/><animateTransform attributeName="transform" attributeType="XML" type="rotate" from="0 550 215" to="360 550 215" begin="5s" dur="6s" repeatCount="indefinite" /></path><path  d="m537.32 216.12c-0.67-1.483 1.853-3.826 3.439-3.463 2.533 0.58 3.117 6.52 5.512 5.512 5.32-2.238 6.797-9.725 11.708-12.756 1.385-0.855 4.404 1.91 3.585 3.317-3.753 6.451-15.134 27.565-24.244 7.39z" fill="none" stroke-width="2px"><animate fill="freeze" attributeName="fill" begin="4s" dur="0.13s" from="transparent" to="white" repeatCount="5"/></path></svg>